<svg id="Layer_1" data-name="Layer 1" xmlns="http://www.w3.org/2000/svg" viewBox="0 0 256 256"><defs><style>.cls-1{fill:#7aa47f;}.cls-2{fill:#fff;}.cls-3{fill:#f4f4f5;}.cls-4{fill:#cecccc;}.cls-5{fill:#e0e0e0;}.cls-6{fill:#bfbfbf;}.cls-7{fill:#efefdf;}.cls-8{fill:#fcb118;}.cls-9{fill:#a34b34;}.cls-10{fill:#f9e400;}.cls-11{fill:#56b94e;}.cls-12{fill:#957cb6;}.cls-13{fill:#cd722e;}.cls-14{fill:#e0c863;}.cls-15{fill:#deb92b;}.cls-16{fill:#d5bb2f;}.cls-17{fill:#a25727;}.cls-18{fill:#528f43;}.cls-19{fill:#a65c28;}.cls-20{fill:#439346;}.cls-21{fill:#5aa451;}.cls-22{fill:#3c9346;}.cls-23{fill:#3e9246;}.cls-24{fill:#409346;}.cls-25{fill:#449346;}.cls-26{fill:#439846;}.cls-27{fill:#5ba950;}.cls-28{fill:#fee49d;}.cls-29{fill:#ffe7a3;}.cls-30{fill:#ffe9a6;}.cls-31{fill:#fee8a5;}.cls-32{fill:#feeaa9;}.cls-33{fill:#fee69f;}.cls-34{fill:#ffe9a7;}.cls-35{fill:#feeaa8;}</style></defs><title>Untitled-1</title><rect class="cls-1" width="256" height="256" rx="58.07"/><path class="cls-2" d="M175.34,78.17c2.49,10.5,5,21,7.46,31.5q9.76,42.11,19.49,84.23c1.13,4.87.07,6.91-4.55,7.24q-49.28,3.59-98.55,7a5.4,5.4,0,0,1,.1-3.44c-.5-7.2-2.75-14-4.35-21Q84.73,139.28,74.43,94.87c-.54-2.31-1.57-4.79.65-6.9,2.55-1.47,5.42-1.35,8.2-1.55q40.93-3,81.89-6C168.69,80.22,172.14,79.81,175.34,78.17Z" transform="translate(0 0)"/><path class="cls-3" d="M66.27,54.39c1.39-3.12,4.33-3.22,7.07-3.42q43.77-3.19,87.55-6.29c4.57-.33,8,1.11,10.43,5.34,3.25,5.58,7.09,10.83,10.64,16.24,3,4.57,2.78,5-2.48,5.62-1.73.22-4.09-.66-4.73,2.11-1.41.9-3,.8-4.57.91-25.31,1.8-50.62,3.51-75.9,5.61C86.37,81.16,80.75,79,77,71.77,73.83,65.75,69,60.72,66.27,54.39Z" transform="translate(0 0)"/><path class="cls-4" d="M54.62,209.71c-2.56-4.72-.69-9.64-.33-14.37,2.36-31.5,5-63,7.64-94.47,1.27-15.13,2.8-30.23,4.21-45.34,2.2.21,2,2.24,2.4,3.55,1.71,5.52,3.6,11,3.95,16.85-.45,7.2.83,14.29,1.35,21.43,2.21,30.52,4.32,61,6.72,91.54A3.51,3.51,0,0,1,79,192c-6.74,5.15-13.09,10.78-19.71,16.07C58,209.11,56.57,210.28,54.62,209.71Z" transform="translate(0 0)"/><path class="cls-5" d="M71.48,75.36,66.14,55.53c0-.38.08-.76.13-1.14,5.27,4.47,8.46,10.55,11.79,16.35,3.68,6.38,8.11,8.89,15.67,8.22,24.75-2.21,49.57-3.77,74.36-5.55,2.24-.16,4.54-.75,6.66.58.19,1.39.39,2.78.59,4.18.39,4-2.56,3.4-4.89,3.57q-40.78,3-81.59,5.94l-14.11,1C71,84.93,71.44,80.09,71.48,75.36Z" transform="translate(0 0)"/><path class="cls-5" d="M54.62,209.71c7.48-4.89,13.79-11.26,20.83-16.71,1.42-1.1,2.58-2.36,4.52-2.25.34-.06.76-.19,1,0,6.87,4.58,14.1,8.71,19.17,15.51l-1,1.91-40.61,3.13C57,211.42,55.38,211.62,54.62,209.71Z" transform="translate(0 0)"/><path class="cls-6" d="M100.16,206.25,80,190.75a10.49,10.49,0,0,1-1.45-5.5q-3.8-52.69-7.61-105.39c-.11-1.51-.76-3.15.57-4.5a52.2,52.2,0,0,0,3.27,13.37q4.11,18.09,8.22,36.18,7.43,32.35,14.9,64.7c.74,3.22,1.63,6.42,2.34,9.65C100.72,201.57,101.9,203.93,100.16,206.25Z" transform="translate(0 0)"/><ellipse class="cls-7" cx="143.11" cy="139.33" rx="34.02" ry="39.86" transform="translate(-52.97 101.32) rotate(-33.26)"/><path class="cls-8" d="M125.67,159.79l-.48-2.67a21.14,21.14,0,0,1-.54-3c-.17-.8.22-.88.82-.71a3.11,3.11,0,0,1,.76.36,2.42,2.42,0,0,0,3,0,2.3,2.3,0,0,1,2.58,0c2.23,1.07,4.26,1.09,6-.31.2-.16.46-.35.7-.26,1.13.44,2.27.09,3.39.57.23.09.46.21.69.3a2.59,2.59,0,0,0,2.1-.12,5.42,5.42,0,0,1,4.73-.22c1.63.76,3.14,1,4.42-.22a1.22,1.22,0,0,1,1.27-.17,4,4,0,0,0,3.46-.24,1.66,1.66,0,0,1,1.64.06c.47.22.93.49,1.41.66.84.31,1.62.36,2.09-.44a1.53,1.53,0,0,1,2.23-.56c.57.26,1.24,0,1.72.67a10.45,10.45,0,0,1,.44,5c-.23,1.65-.88,2.23-2.49,2.25-4.46.08-8.95-.08-13.38.18-7.66.46-15.43.22-23.13.42A3.64,3.64,0,0,1,125.67,159.79Z" transform="translate(0 0)"/><path class="cls-9" d="M122.63,149.2a3.92,3.92,0,0,1-1.72-3.52c0-1.75,1.22-2.35,2.55-2.77a.8.8,0,0,1,.57,0,3.17,3.17,0,0,0,3.34.24c1.2-.61,2.59-.09,3.9.07a9.21,9.21,0,0,0,2.57,0,18.17,18.17,0,0,1,7,.61c2.43.8,4.83,1.75,7.25,2.57,3.51,1.19,6.67,1,9-1.7,1.24-1.43,2.91-1.75,4.72-1.86a10.6,10.6,0,0,0,3.09-.21c.24-.13.45,0,.65.19,2.43,1.68,2.79,3.52,1,5.4a1.2,1.2,0,0,1-.47.5,2.23,2.23,0,0,1-.87.32c-6,.91-12.18.55-18.29.69-3.21.07-6.44.08-9.66.09a23.14,23.14,0,0,1-2.64.27c-.49,0-1,0-1.48,0-2.11,0-4.25,0-6.35.09a12.66,12.66,0,0,1-2.59-.27C123.68,149.76,123.06,149.83,122.63,149.2Z" transform="translate(0 0)"/><path class="cls-10" d="M123.85,143l-.39-.07c-.43-.56-1-.32-1.5-.54-.89-.41-1.55-.91-1.21-2a2.84,2.84,0,0,1,2.62-.76c.45,0,.91.11,1.36.17a42.14,42.14,0,0,0,9.14-.33,19.15,19.15,0,0,1,3.28.25,89.6,89.6,0,0,0,12.64.53c4.39-.25,8.79-.35,13.18-.59h.9c1.21,0,1.86.47,2,1.45a1.48,1.48,0,0,1-1.46,1.62c-1.25.13-2.56,0-3.81.13a7.19,7.19,0,0,0-4,2.34c-1.85,2-4.29,2.35-7,1.69s-5.23-1.94-7.89-2.65a16.09,16.09,0,0,0-8.16-.83,10.32,10.32,0,0,1-3.72-.32,3.35,3.35,0,0,0-2.2.08A3.5,3.5,0,0,1,123.85,143Z" transform="translate(0 0)"/><path class="cls-11" d="M165.49,148.7l.63-.27a2.6,2.6,0,0,1,1,.26c2,1,2.63,3.05,1.31,4.39a.7.7,0,0,1-.66.2,9.91,9.91,0,0,1-2.25-.61,1,1,0,0,0-1.45.52c-.41.93-1.24,1.14-2.27.75a7.41,7.41,0,0,1-1.3-.63,1.71,1.71,0,0,0-2.1,0,2.8,2.8,0,0,1-2.9.16,1.4,1.4,0,0,0-1.69.28c-1.12,1-2.6.89-4,.16a5.22,5.22,0,0,0-5,.14,3.06,3.06,0,0,1-2.63-.15c-1.17-.66-2.4-.12-3.58-.75-.21-.11-.44.21-.63.36a5,5,0,0,1-5.59.53c-1.34-.61-2.48-.83-3.55.14a1.63,1.63,0,0,1-1.93,0,17.18,17.18,0,0,0-2.59-1.19c-.42.1-.85.19-1.26.3a1.39,1.39,0,0,1-1.61-.67,1.37,1.37,0,0,1,0-1.66c.41-.6.84-1.18,1.26-1.76l1.3.43a1.57,1.57,0,0,1,1.15.74c.69,1,1.42,1,2,.17a1.33,1.33,0,0,1,1.28-.63c.94,0,1.87,0,2.8,0a1.83,1.83,0,0,1,1.22.33c.85.85,1.73,1.18,2.68.62a1.17,1.17,0,0,1,1.09,0c1.72.78,2,.66,2.62-1,.27-.38.71-.31,1.12-.29,2.47.08,4.89-.17,7.39.07a25,25,0,0,0,3.2-.19,4.52,4.52,0,0,1,1.57.22c.53.13,1.12,1.23,1.58.13a1.39,1.39,0,0,1,1.63-.24c.13.11,0,0,.1.06,1.52,1.24,1.52,1.24,2.44-.18a30.09,30.09,0,0,0,3.69-.26c.42.31.55.82.86,1.22s.63.87,1.23.81c-.13-.76-1.29-1-.9-1.91C163.57,148.94,164.62,149.09,165.49,148.7Z" transform="translate(0 0)"/><path class="cls-12" d="M163.56,136.34c.56.17,1.13.3,1.68.5s1.1.42,1.21,1.1-.31,1.05-.83,1.29l-.5.21c-.23.3-.58.26-.91.27-2,.1-3.94.19-5.91.23-4.22.09-8.37.63-12.63.41a95.14,95.14,0,0,1-10.48-.8c-1.31-.21-2.48.33-3.77.26a15.1,15.1,0,0,0-2.77.15,17.54,17.54,0,0,1-6.71-.6,5.08,5.08,0,0,1-1.71-1.19h0c-.3-1.21.66-1.16,1.27-1.47a41.29,41.29,0,0,0,7.57.54c1.58,0,3.19.29,4.74.18,3.49-.23,7.06-.07,10.53-.34,4.83-.38,9.74-.18,14.6-.33a12.2,12.2,0,0,0,3.73-.45A1,1,0,0,1,163.56,136.34Z" transform="translate(0 0)"/><path class="cls-13" d="M167.68,153.09h.72a17.16,17.16,0,0,1,.49,5.89c-.3,1.77-1,2.43-2.73,2.46l-23.4.43-13.72.27A4.09,4.09,0,0,1,125.8,161c-.38-.38-.69-.79-.13-1.16,1.57,1.3,3.23,1.22,4.93,1.19,6.36-.11,12.77,0,19.11-.28,5.4-.24,10.85-.18,16.26-.32a1.69,1.69,0,0,0,1.82-1.54,13.54,13.54,0,0,0-.31-5.5C167.48,153.19,167.62,153.18,167.68,153.09Z" transform="translate(0 0)"/><path class="cls-14" d="M121.94,139.36c4.2.62,8.25.18,12.36,0a70.42,70.42,0,0,1,7.47.54,151.13,151.13,0,0,0,15.51-.18c2.62-.09,5.19-.4,7.84-.3a2.39,2.39,0,0,1,.43,3.36l-.44-.07a10.68,10.68,0,0,1-4.73-.12c1.15-.41,2.44-.11,3.65-.2a2.39,2.39,0,0,0,1.27-.3,1,1,0,0,0,.37-1.3,1.2,1.2,0,0,0-1.18-.87c-4.45.08-8.87.34-13.3.57a38.48,38.48,0,0,1-6.87,0c-1.44-.18-2.85-.07-4.29-.21-1.66-.15-3.34-.4-5-.44a33.12,33.12,0,0,0-5.91.33,21.61,21.61,0,0,1-5.5-.18,4.18,4.18,0,0,0-2.89.39C120.74,139.5,121.69,139.88,121.94,139.36Z" transform="translate(0 0)"/><path class="cls-15" d="M124.27,153a3.12,3.12,0,0,1,2.17.74,2,2,0,0,0,2.61,0,2.12,2.12,0,0,1,2.51-.23c2.46,1.18,4.7,1.29,6.58-.46.1-.09.31-.22.38-.17,1.16.79,2.46-.08,3.59.9a.21.21,0,0,1,0,.29c-1.15-.49-2.32,0-3.48-.61-.15-.08-.45.18-.65.33-1.73,1.37-3.72,1.43-5.91.4-1.13-.54-2.13-.67-3,.14a2.07,2.07,0,0,1-2.44,0c-.35-.18-.69-.42-1-.58-.58-.27-1-.26-.8.59s.28,1.86.41,2.79A26.12,26.12,0,0,1,124.27,153Z" transform="translate(0 0)"/><path class="cls-16" d="M142.13,154.05l0-.29a5.65,5.65,0,0,0,3.3-.28,4.43,4.43,0,0,1,4,0c1.72,1,3.43,1.17,4.74-.32.31-.35.67-.18,1,0a3,3,0,0,0,3.46-.28,1.2,1.2,0,0,1,1.39,0,15.21,15.21,0,0,0,1.73.83c1,.33,1.85.32,2.21-.78.24-.74.72-.85,1.41-.54a7.25,7.25,0,0,0,2.34.71,2.43,2.43,0,0,1-.2.25c-.37,0-.8.08-1.12-.1a1.65,1.65,0,0,0-2.6.67c-.46.79-1.46.57-2.26.14-1.26-.68-2.34-1.1-3.6-.29-.84.54-2.14-.15-3.19-.19s-1.63,1.19-2.82,1.11a3.57,3.57,0,0,1-1.79-.39c-1.49-1.07-2.86-.47-4.29-.53-.43,0-.62.32-.93.5a4.92,4.92,0,0,1-2.26,0A.53.53,0,0,1,142.13,154.05Z" transform="translate(0 0)"/><path class="cls-15" d="M142.62,154.28l2.26,0A2.43,2.43,0,0,1,142.62,154.28Z" transform="translate(0 0)"/><path class="cls-17" d="M160.38,142.61a39.43,39.43,0,0,1,4.73.12c-.11.61-.64.37-1,.38a20.7,20.7,0,0,0-4.32.3,3.69,3.69,0,0,0-2.05,1.08c-2.26,2.72-5.2,3.55-8.85,2.44-2.67-.82-5.32-1.83-8-2.85a.77.77,0,0,1,.88,0c2.54.47,4.95,1.79,7.47,2.44,2.95.75,5.46.35,7.41-1.81A6.48,6.48,0,0,1,160.38,142.61Z" transform="translate(0 0)"/><path class="cls-18" d="M161.59,149.48a9.71,9.71,0,0,0-3.81.27,2.23,2.23,0,0,1-2.5,0,1,1,0,0,0-1.53.25c-.39.4-.87.3-1.37,0a5.54,5.54,0,0,0-4.64-.05.77.77,0,0,1-.54,0c-2.68-.9-5.18-.12-7.79-.32a.53.53,0,0,0-.54.45.62.62,0,0,1-.74.17c-.75-.64-1.32-.27-1.9.08a2,2,0,0,1-1.61-.12.39.39,0,0,1-.08-.55c7.37-.6,14.88-.3,22.31-.5a74.91,74.91,0,0,0,8.64-.55c-.74.76-2,.25-2.78.77C162.41,150,162,150.06,161.59,149.48Z" transform="translate(0 0)"/><path class="cls-19" d="M141.8,144.07h-.88c-1.95-.29-3.95-.91-5.86-.64a17.38,17.38,0,0,1-5.92-.21,3,3,0,0,0-2,.37c-1.13.65-2.2.3-3.26-.62,1.63.66,3-.37,4.44-.17,4.11.59,8.06-.5,12.2.77C140.93,143.72,141.41,143.7,141.8,144.07Z" transform="translate(0 0)"/><path class="cls-20" d="M132.37,150.49c-1.61-1-3.11-.34-4.64-.35-.23,0-.27.31-.31.55-.11.71-.6.84-1.22.83a1.44,1.44,0,0,1-1.41-1,1.81,1.81,0,0,0-.86-.94c3.12.41,6.13,0,9.23.16a.4.4,0,0,1,.12.48A1,1,0,0,1,132.37,150.49Z" transform="translate(0 0)"/><path class="cls-21" d="M133.25,150.22l-.09-.43a2.79,2.79,0,0,1,1.38,0c0,.16,0,.31,0,.46C134.24,150.94,133.76,150.74,133.25,150.22Z" transform="translate(0 0)"/><path class="cls-22" d="M146.56,152.81a2.66,2.66,0,0,0-2.21.12c-.6.19-2-.94-2.28-1.61-.1-.29-.06-.48.14-.61a.54.54,0,0,1,.73.18,1.44,1.44,0,0,0,2.14.42c.64-.33,1.63.35,2.43-.06.23-.12.44.42.3.74A1.51,1.51,0,0,1,146.56,152.81Z" transform="translate(0 0)"/><path class="cls-23" d="M133.25,150.22c.45.09.94.39,1.33,0h1.82c.52-.06,1,0,1.58,0h.89a1.45,1.45,0,0,1-2.46,1.18c-.47-.34-.84-.52-1.33-.2-.94.61-1.88.37-2.71-.66C132.55,150.12,132.94,150.27,133.25,150.22Z" transform="translate(0 0)"/><path class="cls-24" d="M161.59,149.48a.91.91,0,0,0,1.12,0,1.69,1.69,0,0,0,.82,1c.35.25.73.54.46.94s-.73.25-1.11-.06A3.82,3.82,0,0,1,161.59,149.48Z" transform="translate(0 0)"/><path class="cls-25" d="M155.28,149.78l2.5,0C157.32,151.28,156.69,151.29,155.28,149.78Z" transform="translate(0 0)"/><path class="cls-26" d="M152.38,150.06l1.37,0C153.46,151.11,153,150.77,152.38,150.06Z" transform="translate(0 0)"/><path class="cls-8" d="M146.59,114.36c4.56.74,9,2.1,12.4,6.16,2.3,2.75,3.42,6.11,4.3,9.5a34.52,34.52,0,0,1,.75,3.61,2,2,0,0,1-1.22,2.4,8.38,8.38,0,0,1-3,.56c-4.76,0-9.57-.09-14.29.2s-9.42.2-14.13.32c-2.8.07-5.63-.21-8.46-.38-.86,0-1.13-.63-1.2-1.27a23.46,23.46,0,0,1,1-11.05c2-5.19,5.35-8.9,10.86-9.9a41.27,41.27,0,0,1,11.82-.37" transform="translate(0 0)"/><path class="cls-27" d="M138,150.18c-.44.63-1,.37-1.58,0C136.88,149.51,137.63,149.51,138,150.18Z" transform="translate(0 0)"/><path class="cls-28" d="M151.45,119c-.48-.28-1.25.14-1.51-.74-.13-.43.34-.54.69-.47.53.12,1.22,0,1.46.77C152.23,119,151.79,118.92,151.45,119Z" transform="translate(0 0)"/><path class="cls-29" d="M154.74,121.59c.42,0,1.64,1,1.64,1.35s-.12.5-.39.4a2.4,2.4,0,0,1-1.65-1.34C154.25,121.75,154.5,121.61,154.74,121.59Z" transform="translate(0 0)"/><path class="cls-30" d="M152.47,126.24c-.51-.13-1.19,0-1.46-.72-.15-.39.27-.56.57-.45.54.19,1.32-.1,1.56.79C153.26,126.27,152.79,126.21,152.47,126.24Z" transform="translate(0 0)"/><path class="cls-31" d="M147.73,121.61a.49.49,0,0,1-.53-.4c-.1-.39.86-1.26,1.36-1.24a.44.44,0,0,1,.47.44C149.06,120.72,148.09,121.61,147.73,121.61Z" transform="translate(0 0)"/><path class="cls-32" d="M140.55,121.71c.4.14,1-.06,1.29.64a.38.38,0,0,1-.52.48c-.52-.25-1.3.27-1.55-.66C139.65,121.74,140.12,121.71,140.55,121.71Z" transform="translate(0 0)"/><path class="cls-33" d="M143.92,117.82c-.19.57-.39,1.21-1,1.41a.4.4,0,0,1-.48-.51,1.7,1.7,0,0,1,1.07-1.41C143.73,117.23,143.9,117.48,143.92,117.82Z" transform="translate(0 0)"/><path class="cls-34" d="M136.52,117.67a2.89,2.89,0,0,1,1.57,1.11.34.34,0,0,1-.38.5,2.48,2.48,0,0,1-1.6-1.16C136,117.86,136.22,117.72,136.52,117.67Z" transform="translate(0 0)"/><path class="cls-35" d="M132.76,122.29c-.43,0-.77,0-.73-.41.09-.64.63-.87,1.13-1.06.26-.1.62,0,.62.33C133.79,121.93,133,121.92,132.76,122.29Z" transform="translate(0 0)"/></svg>