<svg width="32" height="32" viewBox="0 0 32 32" fill="none" xmlns="http://www.w3.org/2000/svg">
<rect x="1" y="1" width="29.2165" height="29.2165" rx="14.6082" fill="#7AA37E" stroke="white" stroke-width="2"/>
<path d="M11.5042 11.0698C11.8474 11.0698 12.1906 11.0655 12.5331 11.0698C12.7372 11.0746 12.9358 11.0031 13.0907 10.8692C13.3693 10.6551 13.6594 10.4567 13.9596 10.2747C14.1874 10.1319 14.4372 10.0403 14.6924 10.2132C14.8273 10.2995 14.9342 10.4237 15 10.5704C15.0659 10.7171 15.0878 10.8799 15.0631 11.039C15.021 11.3418 14.9159 11.6359 14.8286 11.9307C14.7875 12.0643 14.734 12.1937 14.6686 12.3171C14.5105 12.6248 14.4708 12.9479 14.4317 13.2863C14.4086 13.4746 14.3389 13.654 14.229 13.808C14.1191 13.962 13.9725 14.0856 13.8027 14.1675C13.6006 14.2734 13.5102 14.4137 13.512 14.6297C13.512 15.0186 13.4894 15.3921 13.7056 15.7675C14.0384 16.3466 14.988 16.7102 15.6542 16.3829C16.067 16.178 16.4127 15.9343 16.638 15.5214C17.0838 14.7029 17.8172 14.3521 18.7032 14.3275C19.8238 14.2992 20.9462 14.3128 22.0674 14.322C22.7 14.3269 23.0542 14.778 23.3907 15.2315C23.5776 15.4675 23.6672 15.767 23.641 16.0678C23.6099 16.3829 23.4927 16.5195 23.1776 16.5601C23.122 16.5669 23.0664 16.5669 23.0108 16.5718C22.7171 16.597 22.6854 16.6721 22.7892 16.9502C23.0475 17.6413 23.0335 18.3342 22.7807 19.0283C22.4753 19.872 21.8781 20.4394 21.0799 20.7773C20.4485 21.0443 19.7976 21.1464 19.1002 20.9471C18.3063 20.7207 17.6737 20.3101 17.187 19.6406C17.1366 19.5829 17.0752 19.5359 17.0065 19.5024C16.9378 19.4689 16.8632 19.4496 16.787 19.4456C15.9622 19.4279 15.1374 19.4279 14.3126 19.4456C14.1698 19.4588 14.0381 19.5285 13.9462 19.6394C13.6018 20.0941 13.1982 20.4751 12.6797 20.7065C11.9897 21.0142 11.2892 21.1594 10.5222 20.9409C9.75525 20.7225 9.10062 20.3298 8.66216 19.6566C8.20478 18.9601 7.99227 18.2019 8.20905 17.341C8.38309 16.6475 8.73789 16.0986 9.25145 15.6278C9.3461 15.5404 9.39495 15.4007 9.4603 15.2826C9.58548 15.0549 9.6954 14.818 9.8328 14.5983C10.063 14.2291 10.0636 14.1238 9.73387 13.8463C9.06703 13.2845 8.99131 12.4211 9.27954 11.7504C9.46274 11.3245 9.86333 11.1258 10.3091 11.0895C10.7054 11.0568 11.106 11.0827 11.5042 11.0827V11.0698ZM19.8336 19.0431C20.531 19.0081 20.9139 18.6124 20.9554 17.9693C20.9914 17.4155 20.4357 16.9115 19.8464 16.9072C19.2572 16.9029 18.7063 17.4284 18.7106 17.9853C18.7148 18.5422 19.2553 19.0431 19.8336 19.0431ZM10.1937 17.9619C10.1803 18.5465 10.6664 19.032 11.2776 19.0443C11.8889 19.0566 12.3689 18.6025 12.3768 17.9896C12.3848 17.3767 11.9365 16.917 11.299 16.9102C10.7787 16.9041 10.1821 17.2844 10.1937 17.9619Z" fill="white"/>
<path d="M20.4712 9.48768C21.2686 9.48768 22.0655 9.48768 22.8631 9.48768C23.3968 9.48768 23.7497 9.84582 23.7534 10.3787C23.7575 11.0056 23.7575 11.6329 23.7534 12.2605C23.7497 12.695 23.3363 13.1344 22.9082 13.1362C21.3047 13.1428 19.7011 13.1428 18.0975 13.1362C17.7677 13.1362 17.4624 12.8519 17.325 12.5528C17.0227 11.8962 17.1449 11.2089 17.1595 10.535C17.165 10.2809 17.3134 10.0187 17.4367 9.78182C17.5528 9.55844 17.7707 9.48214 18.0254 9.4846C18.8413 9.49198 19.6565 9.4846 20.4724 9.4846L20.4712 9.48768Z" fill="#AFC8B2"/>
</svg>
