<svg width="72" height="72" viewBox="0 0 72 72" fill="none" xmlns="http://www.w3.org/2000/svg">
<g filter="url(#filter0_dd)">
<rect x="22" y="19" width="27.2165" height="27.2165" rx="13.6082" fill="#7AA37E"/>
<rect x="21" y="18" width="29.2165" height="29.2165" rx="14.6082" stroke="white" stroke-width="2"/>
</g>
<path d="M31.5042 28.0698C31.8474 28.0698 32.1906 28.0655 32.5331 28.0698C32.7372 28.0746 32.9358 28.0031 33.0907 27.8692C33.3693 27.6551 33.6594 27.4567 33.9596 27.2747C34.1874 27.1319 34.4372 27.0403 34.6924 27.2132C34.8273 27.2995 34.9342 27.4237 35 27.5704C35.0659 27.7171 35.0878 27.8799 35.0631 28.039C35.021 28.3418 34.9159 28.6359 34.8286 28.9307C34.7875 29.0643 34.734 29.1937 34.6686 29.3171C34.5105 29.6248 34.4708 29.9479 34.4317 30.2863C34.4086 30.4746 34.3389 30.654 34.229 30.808C34.1191 30.962 33.9725 31.0856 33.8027 31.1675C33.6006 31.2734 33.5102 31.4137 33.512 31.6297C33.512 32.0186 33.4894 32.3921 33.7056 32.7675C34.0384 33.3466 34.988 33.7102 35.6542 33.3829C36.067 33.178 36.4127 32.9343 36.638 32.5214C37.0838 31.7029 37.8172 31.3521 38.7032 31.3275C39.8238 31.2992 40.9462 31.3128 42.0674 31.322C42.7 31.3269 43.0542 31.778 43.3907 32.2315C43.5776 32.4675 43.6672 32.767 43.641 33.0678C43.6099 33.3829 43.4927 33.5195 43.1776 33.5601C43.122 33.5669 43.0664 33.5669 43.0108 33.5718C42.7171 33.597 42.6854 33.6721 42.7892 33.9502C43.0475 34.6413 43.0335 35.3342 42.7807 36.0283C42.4753 36.872 41.8781 37.4394 41.0799 37.7773C40.4485 38.0443 39.7976 38.1464 39.1002 37.9471C38.3063 37.7207 37.6737 37.3101 37.187 36.6406C37.1366 36.5829 37.0752 36.5359 37.0065 36.5024C36.9378 36.4689 36.8632 36.4496 36.787 36.4456C35.9622 36.4279 35.1374 36.4279 34.3126 36.4456C34.1698 36.4588 34.0381 36.5285 33.9462 36.6394C33.6018 37.0941 33.1982 37.4751 32.6797 37.7065C31.9897 38.0142 31.2892 38.1594 30.5222 37.9409C29.7553 37.7225 29.1006 37.3298 28.6622 36.6566C28.2048 35.9601 27.9923 35.2019 28.2091 34.341C28.3831 33.6475 28.7379 33.0986 29.2515 32.6278C29.3461 32.5404 29.395 32.4007 29.4603 32.2826C29.5855 32.0549 29.6954 31.818 29.8328 31.5983C30.063 31.2291 30.0636 31.1238 29.7339 30.8463C29.067 30.2845 28.9913 29.4211 29.2795 28.7504C29.4627 28.3245 29.8633 28.1258 30.3091 28.0895C30.7054 28.0568 31.106 28.0827 31.5042 28.0827V28.0698ZM39.8336 36.0431C40.531 36.0081 40.9139 35.6124 40.9554 34.9693C40.9914 34.4155 40.4357 33.9115 39.8464 33.9072C39.2572 33.9029 38.7063 34.4284 38.7106 34.9853C38.7148 35.5422 39.2553 36.0431 39.8336 36.0431ZM30.1937 34.9619C30.1803 35.5465 30.6664 36.032 31.2776 36.0443C31.8889 36.0566 32.3689 35.6025 32.3768 34.9896C32.3848 34.3767 31.9365 33.917 31.299 33.9102C30.7787 33.9041 30.1821 34.2844 30.1937 34.9619Z" fill="white"/>
<path d="M40.4712 26.4877C41.2686 26.4877 42.0655 26.4877 42.8631 26.4877C43.3968 26.4877 43.7497 26.8458 43.7534 27.3787C43.7575 28.0056 43.7575 28.6329 43.7534 29.2605C43.7497 29.695 43.3363 30.1344 42.9082 30.1362C41.3047 30.1428 39.7011 30.1428 38.0975 30.1362C37.7677 30.1362 37.4624 29.8519 37.325 29.5528C37.0227 28.8962 37.1449 28.2089 37.1595 27.535C37.165 27.2809 37.3134 27.0187 37.4367 26.7818C37.5528 26.5584 37.7707 26.4821 38.0254 26.4846C38.8413 26.492 39.6565 26.4846 40.4724 26.4846L40.4712 26.4877Z" fill="#AFC8B2"/>
<path opacity="0.5" d="M32.8866 51.3408C32.8866 51.1412 33.0484 50.9794 33.248 50.9794H38.1704C38.2585 50.9794 38.3299 51.0508 38.3299 51.1389V51.1389C38.3299 51.4365 38.1083 51.6875 37.813 51.7244L35.7086 51.9875C35.6419 51.9958 35.5745 51.9958 35.5079 51.9875L33.2032 51.6994C33.0223 51.6768 32.8866 51.523 32.8866 51.3408V51.3408Z" fill="#82A986"/>
<defs>
<filter id="filter0_dd" x="0" y="0" width="71.2165" height="71.2165" filterUnits="userSpaceOnUse" color-interpolation-filters="sRGB">
<feFlood flood-opacity="0" result="BackgroundImageFix"/>
<feColorMatrix in="SourceAlpha" type="matrix" values="0 0 0 0 0 0 0 0 0 0 0 0 0 0 0 0 0 0 127 0"/>
<feOffset dy="2"/>
<feGaussianBlur stdDeviation="2.5"/>
<feColorMatrix type="matrix" values="0 0 0 0 0 0 0 0 0 0 0 0 0 0 0 0 0 0 0.05 0"/>
<feBlend mode="normal" in2="BackgroundImageFix" result="effect1_dropShadow"/>
<feColorMatrix in="SourceAlpha" type="matrix" values="0 0 0 0 0 0 0 0 0 0 0 0 0 0 0 0 0 0 127 0"/>
<feOffset dy="3"/>
<feGaussianBlur stdDeviation="10"/>
<feColorMatrix type="matrix" values="0 0 0 0 0 0 0 0 0 0 0 0 0 0 0 0 0 0 0.25 0"/>
<feBlend mode="normal" in2="effect1_dropShadow" result="effect2_dropShadow"/>
<feBlend mode="normal" in="SourceGraphic" in2="effect2_dropShadow" result="shape"/>
</filter>
</defs>
</svg>
