<svg width="32" height="32" viewBox="0 0 32 32" fill="none" xmlns="http://www.w3.org/2000/svg">
<rect x="1" y="1" width="29.2165" height="29.2165" rx="14.6082" fill="#7AA37E" stroke="white" stroke-width="2"/>
<path d="M20.0498 11.1465C20.2707 12.0764 20.4951 13.0045 20.7107 13.935C21.2873 16.4197 21.8621 18.9049 22.4352 21.3904C22.5354 21.8217 22.4422 22.0016 22.0326 22.0314C19.1252 22.2432 16.2178 22.4502 13.3104 22.6525C13.2664 22.5494 13.2963 22.4492 13.3191 22.3484C13.2734 21.7109 13.076 21.1051 12.9342 20.4887C12.3318 17.866 11.7268 15.2447 11.1189 12.6248C11.0715 12.4203 10.9801 12.2012 11.1775 12.0148C11.4037 11.8842 11.6568 11.8977 11.9029 11.8771C14.3189 11.699 16.735 11.5232 19.151 11.3498C19.4621 11.3281 19.7674 11.2918 20.0498 11.1465Z" fill="white"/>
<path d="M10.3965 9.04239C10.5201 8.76582 10.7803 8.75704 11.0223 8.73946C13.6051 8.55079 16.1881 8.36524 18.7713 8.18282C19.1762 8.15352 19.4744 8.28125 19.6941 8.65508C19.9818 9.14961 20.3217 9.61368 20.6363 10.0924C20.9024 10.4973 20.8824 10.5324 20.4172 10.5904C20.2637 10.6098 20.0551 10.5318 19.9977 10.7768C19.8734 10.857 19.7311 10.8482 19.5934 10.8582C17.3539 11.017 15.1133 11.1682 12.8756 11.3539C12.1754 11.4125 11.6785 11.2186 11.3445 10.5811C11.0656 10.0473 10.6367 9.60196 10.3965 9.04239Z" fill="#F4F4F5"/>
<path d="M9.36523 22.7897C9.13906 22.3719 9.30664 21.9359 9.33593 21.5182C9.5457 18.7297 9.77773 15.9424 10.0127 13.1563C10.1252 11.818 10.26 10.4809 10.3853 9.14317C10.5805 9.16251 10.5611 9.34181 10.5975 9.45841C10.7486 9.94649 10.9156 10.4316 10.949 10.949C10.9092 11.5865 11.0228 12.2147 11.0662 12.8463C11.2619 15.5475 11.4482 18.2492 11.6609 20.9481C11.6631 21.0014 11.6515 21.0544 11.6272 21.102C11.603 21.1496 11.567 21.1902 11.5227 21.2199C10.9297 21.6752 10.3648 22.1733 9.7789 22.642C9.66113 22.7363 9.53867 22.84 9.36523 22.7897Z" fill="#CECCCC"/>
<path d="M10.8576 10.8986C10.7014 10.3127 10.5439 9.72676 10.3854 9.14082C10.3889 9.10684 10.3924 9.07344 10.3965 9.04004C10.8652 9.43613 11.1453 9.97402 11.4406 10.4867C11.7658 11.0539 12.1602 11.2766 12.827 11.2168C15.0178 11.0211 17.2145 10.8834 19.4088 10.7258C19.6068 10.7111 19.8107 10.659 19.9947 10.7768C20.0123 10.8998 20.0299 11.0234 20.0469 11.1465C20.082 11.498 19.8207 11.4477 19.6145 11.4629C17.2078 11.6391 14.8008 11.8148 12.3934 11.9902C11.977 12.0207 11.5605 12.0518 11.1441 12.0834C10.8125 11.7453 10.8541 11.3176 10.8576 10.8986Z" fill="#E0E0E0"/>
<path d="M9.36523 22.7897C10.0279 22.3561 10.5863 21.7936 11.2092 21.3102C11.3346 21.2129 11.4371 21.1022 11.6088 21.1115C11.6393 21.1057 11.6768 21.0951 11.6996 21.1115C12.3072 21.5164 12.9477 21.882 13.3988 22.4838L13.3127 22.6537L9.71563 22.9297C9.57441 22.9414 9.4332 22.9584 9.36523 22.7897Z" fill="#E0E0E0"/>
<path d="M13.3965 22.4826L11.6088 21.1115C11.5074 20.9645 11.4916 20.7963 11.4811 20.6246C11.2568 17.5148 11.0322 14.4055 10.8072 11.2965C10.7973 11.1629 10.7404 11.0176 10.8576 10.8986C10.8887 11.3088 11.0117 11.6967 11.1471 12.0816C11.3897 13.1492 11.6328 14.2168 11.8748 15.2838C12.3131 17.1928 12.7525 19.1008 13.1932 21.0078C13.2594 21.2932 13.3379 21.5762 13.4012 21.8621C13.4492 22.0695 13.55 22.2781 13.3965 22.4826Z" fill="#BFBFBF"/>
</svg>
