<svg width="169" height="125" viewBox="0 0 169 125" fill="none" xmlns="http://www.w3.org/2000/svg">
<g clip-path="url(#clip0)">
<path d="M36.5462 17.1168C40.2563 17.1168 43.9664 17.0702 47.6699 17.1168C49.8758 17.169 52.0228 16.3964 53.6971 14.9481C56.7093 12.6343 59.8454 10.489 63.0911 8.52182C65.5535 6.97845 68.2535 5.98723 71.013 7.85657C72.4707 8.79011 73.6264 10.1321 74.3382 11.718C75.05 13.3038 75.287 15.0646 75.0201 16.7842C74.5646 20.0572 73.4292 23.2371 72.4851 26.4236C72.0411 27.8682 71.462 29.2671 70.7555 30.6014C69.0457 33.9276 68.6166 37.4202 68.1941 41.079C67.9449 43.1143 67.1915 45.0537 66.0032 46.7184C64.8149 48.3832 63.23 49.7199 61.3945 50.6054C59.2094 51.7496 58.2324 53.2664 58.2522 55.6014C58.2522 59.8057 58.0079 63.8438 60.3449 67.9018C63.9427 74.1618 74.2081 78.0934 81.4104 74.5543C85.8731 72.339 89.6096 69.7046 92.0455 65.2408C96.8647 56.393 104.793 52.6011 114.372 52.335C126.486 52.029 138.62 52.1754 150.74 52.2751C157.579 52.3284 161.408 57.2046 165.046 62.1075C167.066 64.6591 168.035 67.8962 167.752 71.1482C167.416 74.5543 166.148 76.0311 162.742 76.4702C162.141 76.5434 161.54 76.5434 160.939 76.5966C157.764 76.8693 157.421 77.6809 158.543 80.6879C161.336 88.1586 161.184 95.6493 158.451 103.153C155.15 112.274 148.694 118.407 140.065 122.06C133.239 124.947 126.202 126.051 118.663 123.896C110.081 121.448 103.242 117.01 97.9804 109.772C97.4353 109.148 96.7721 108.64 96.0295 108.278C95.287 107.916 94.4801 107.707 93.6563 107.664C84.7398 107.473 75.8233 107.473 66.9068 107.664C65.3635 107.807 63.9394 108.56 62.9459 109.759C59.2226 114.675 54.859 118.793 49.2542 121.295C41.7945 124.621 34.2225 126.191 25.9309 123.829C17.6394 121.468 10.5625 117.223 5.82256 109.945C0.877986 102.415 -1.41936 94.219 0.924197 84.9122C2.80564 77.4148 6.64115 71.4808 12.1931 66.3917C13.2163 65.4471 13.7444 63.9369 14.4508 62.6597C15.8041 60.1982 16.9924 57.637 18.4778 55.2621C20.9665 51.2706 20.9731 50.133 17.4083 47.1328C10.1994 41.0591 9.3808 31.7256 12.4967 24.4745C14.4772 19.8709 18.8078 17.7222 23.627 17.3297C27.9114 16.9771 32.242 17.2565 36.5462 17.2565V17.1168ZM126.592 103.313C134.131 102.934 138.27 98.6562 138.719 91.7044C139.108 85.7171 133.101 80.2688 126.73 80.2222C120.36 80.1756 114.405 85.8568 114.451 91.8773C114.497 97.8978 120.34 103.313 126.592 103.313ZM22.3793 91.6245C22.234 97.9444 27.4889 103.193 34.097 103.326C40.7052 103.459 45.894 98.5498 45.9799 91.9239C46.0657 85.298 41.2201 80.3286 34.3281 80.2555C28.7036 80.1889 22.2538 84.3002 22.3793 91.6245Z" fill="white"/>
<path d="M133.484 0.0135123C142.105 0.0135123 150.72 0.0135123 159.342 0.0135123C165.112 0.0135123 168.927 3.88525 168.967 9.6463C169.011 16.4229 169.011 23.204 168.967 29.9896C168.927 34.6862 164.458 39.4361 159.83 39.456C142.495 39.527 125.159 39.527 107.823 39.456C104.258 39.456 100.958 36.3826 99.4723 33.1495C96.2046 26.0513 97.5249 18.6205 97.6833 11.336C97.7427 8.58855 99.3469 5.7546 100.68 3.19339C101.935 0.778546 104.291 -0.0463595 107.044 -0.0197496C115.864 0.0600801 124.677 -0.0197496 133.497 -0.0197496L133.484 0.0135123Z" fill="#AFC8B2"/>
</g>
<defs>
<clipPath id="clip0">
<rect width="169" height="125" fill="white"/>
</clipPath>
</defs>
</svg>
